<svg width="32" height="32" viewBox="0 0 32 32" fill="none" xmlns="http://www.w3.org/2000/svg">
<path fill-rule="evenodd" clip-rule="evenodd" d="M18.9189 8.56635C18.9189 5.11038 16.1179 2.29921 12.6743 2.29921C9.23072 2.29921 6.42964 5.11038 6.42964 8.56635C6.42964 12.0223 9.23072 14.8335 12.6743 14.8335C16.1179 14.8335 18.9189 12.0223 18.9189 8.56635ZM21.2086 8.56631C21.2086 13.2895 17.3808 17.1326 12.6746 17.1326C7.96839 17.1326 4.1406 13.2895 4.1406 8.56631C4.1406 3.84316 7.96839 0 12.6746 0C17.3808 0 21.2086 3.84316 21.2086 8.56631ZM30.8043 12.8618H28.7382V10.8554C28.7382 10.193 28.2025 9.65542 27.5425 9.65542C26.8825 9.65542 26.3468 10.193 26.3468 10.8554V12.8618H24.2839C23.6238 12.8618 23.0882 13.3994 23.0882 14.0618C23.0882 14.7242 23.6238 15.2618 24.2839 15.2618H26.3468V17.2697C26.3468 17.9321 26.8825 18.4697 27.5425 18.4697C28.2025 18.4697 28.7382 17.9321 28.7382 17.2697V15.2618H30.8043C31.4643 15.2618 32 14.7242 32 14.0618C32 13.3994 31.4643 12.8618 30.8043 12.8618ZM12.6742 20.2241C7.23309 20.2241 0 20.8321 0 26.0961C0 27.672 0.730164 29.8 4.20881 30.9824C4.80984 31.1904 5.4571 30.8608 5.66116 30.2624C5.86363 29.6624 5.54319 29.0096 4.94375 28.8064C2.56355 27.9968 2.28934 26.8721 2.28934 26.0961C2.28934 23.7249 5.78392 22.5217 12.6742 22.5217C19.5646 22.5217 23.0592 23.7345 23.0592 26.1281C23.0592 28.5008 19.5646 29.7024 12.6742 29.7024C12.1481 29.7024 11.63 29.696 11.1215 29.68C10.5093 29.6848 9.96244 30.1616 9.9449 30.7952C9.92577 31.4304 10.4232 31.96 11.0545 31.9792C11.5854 31.992 12.1258 32 12.6742 32C18.1154 32 25.3485 31.3904 25.3485 26.1281C25.3485 20.2241 15.8085 20.2241 12.6742 20.2241Z" fill="#47A6FA"/>
</svg>
