<svg width="15" height="15" viewBox="0 0 15 15" fill="none" xmlns="http://www.w3.org/2000/svg">
<path d="M10.6607 0H4.33867C1.946 0 0 1.99108 0 4.43918V9.81082C0 12.2589 1.946 14.25 4.33867 14.25H7.51933C7.79533 14.25 8.01933 14.0208 8.01933 13.7384C8.01933 13.456 7.79533 13.2268 7.51933 13.2268H4.33867C2.49733 13.2268 1 11.6948 1 9.81082V4.43918C1 4.43236 1.002 4.42622 1.002 4.4194H7.766C8.042 4.4194 8.266 4.1909 8.266 3.90782C8.266 3.62542 8.042 3.39624 7.766 3.39624H1.17533C1.60933 2.02451 2.85467 1.02317 4.33867 1.02317H10.6607C12.502 1.02317 14 2.55519 14 4.43918V4.50057H11.5373C10.1767 4.50126 9.06933 5.63424 9.06867 7.02643C9.06933 8.41862 10.1767 9.55161 11.5373 9.5523H12.5607C12.8367 9.5523 13.0607 9.32311 13.0607 9.04071C13.0607 8.75832 12.8367 8.52913 12.5607 8.52913H11.5373C10.7287 8.52845 10.0693 7.85452 10.0687 7.02643C10.0693 6.19835 10.7287 5.52442 11.5373 5.52374H14V9.81082C14 11.6948 12.502 13.2268 10.6607 13.2268C10.3847 13.2268 10.1607 13.456 10.1607 13.7384C10.1607 14.0208 10.3847 14.25 10.6607 14.25C13.0533 14.25 15 12.2589 15 9.81082V4.43918C15 1.99108 13.0533 0 10.6607 0Z" fill="white"/>
</svg>
