<svg width="16" height="16" viewBox="0 0 16 16" fill="none" xmlns="http://www.w3.org/2000/svg">
<path fill-rule="evenodd" clip-rule="evenodd" d="M15.9926 2.47845V4.88868C16.0005 5.54401 15.7531 6.1757 15.3047 6.64478C14.8563 7.11385 14.2438 7.38187 13.6018 7.38986H12.6218C12.2898 7.35358 12.038 7.06755 12.038 6.72667C12.038 6.38579 12.2898 6.09976 12.6218 6.06348H13.5721C13.8728 6.06148 14.1602 5.93714 14.3706 5.71802C14.5811 5.4989 14.6972 5.20311 14.6933 4.89626V2.47845C14.6853 1.84978 14.188 1.34213 13.5721 1.33396H11.2037C10.5845 1.33396 10.0826 1.84637 10.0826 2.47845V6.09379C10.0705 6.4604 9.77367 6.74995 9.41438 6.74562C9.24172 6.74167 9.07781 6.66731 8.95923 6.53914C8.84065 6.41097 8.77729 6.23967 8.78329 6.06348V2.47845C8.78131 1.82182 9.03545 1.1914 9.48958 0.726378C9.94371 0.26136 10.5605 -3.08925e-06 11.2037 0H13.5721C14.8985 0.0321511 15.9651 1.12434 15.9926 2.47845ZM4.79629 0H2.42784C1.09035 0.00827517 0.00810626 1.11308 0 2.47845V4.89626C0.00814204 6.26038 1.09156 7.36299 2.42784 7.36713H4.79629C5.43951 7.36914 6.05706 7.10971 6.51258 6.64611C6.96811 6.18251 7.22413 5.55289 7.22413 4.89626V2.47845C7.22005 1.11137 6.13546 0.00416161 4.79629 0ZM5.9173 4.8964C5.92126 5.20325 5.80513 5.49904 5.59467 5.71816C5.3842 5.93728 5.0968 6.06163 4.79619 6.06362H2.42774C2.12266 6.06987 1.82826 5.94891 1.6125 5.72864C1.39673 5.50837 1.27823 5.20784 1.28435 4.8964V2.47859C1.28429 2.17107 1.40546 1.87647 1.62056 1.66117C1.83565 1.44587 2.12656 1.328 2.42774 1.33411H4.79619C5.41368 1.33824 5.91325 1.84823 5.9173 2.47859V4.8964ZM11.2037 8.63281H13.5722C14.9085 8.63695 15.9919 9.73956 16 11.1037V13.5215C15.9919 14.8869 14.9097 15.9917 13.5722 15.9999H11.2037C9.86746 15.9916 8.78736 14.8856 8.78331 13.5215V11.1037C8.78331 9.73906 9.86696 8.63281 11.2037 8.63281ZM14.3673 14.3331C14.578 14.118 14.6954 13.8257 14.6934 13.5216V11.1038C14.6934 10.8002 14.5753 10.5091 14.3651 10.2945C14.1548 10.0799 13.8697 9.95929 13.5723 9.95929H11.2039C10.5847 9.95929 10.0828 10.4717 10.0828 11.1038V13.5216C10.0808 13.8257 10.1983 14.118 10.4089 14.3331C10.6196 14.5482 10.9059 14.6681 11.2039 14.6661H13.5723C13.8703 14.6681 14.1566 14.5482 14.3673 14.3331ZM0 13.514V11.1038C-3.02617e-06 10.4472 0.256023 9.81752 0.711547 9.35393C1.16707 8.89033 1.78462 8.6309 2.42784 8.63291H3.40046C3.64915 8.60574 3.8912 8.72586 4.02388 8.9423C4.15655 9.15873 4.15655 9.43349 4.02388 9.64992C3.8912 9.86635 3.64915 9.98648 3.40046 9.9593H2.42784C1.80746 9.95929 1.30339 10.4705 1.2993 11.1038V13.4913C1.31508 14.1195 1.81236 14.6238 2.42784 14.6358H4.81114C5.10976 14.6378 5.39683 14.5181 5.60869 14.3032C5.82055 14.0884 5.93968 13.7961 5.93968 13.4913V9.90624C5.89125 9.63852 6.00708 9.36763 6.23231 9.22184C6.45754 9.07606 6.74696 9.08464 6.96351 9.24354C7.18007 9.40244 7.28028 9.67974 7.21671 9.94414V13.514C7.21671 14.8828 6.12972 15.9925 4.78886 15.9925H2.42784C1.09857 15.9643 0.0275789 14.871 0 13.514Z" fill="white"/>
</svg>
