<svg width="17" height="17" viewBox="0 0 17 17" fill="none" xmlns="http://www.w3.org/2000/svg">
<path fill-rule="evenodd" clip-rule="evenodd" d="M16.5 7.36016C16.5 7.69823 16.2259 7.9723 15.8879 7.9723H15.8808C15.7179 7.97234 15.5618 7.90666 15.4479 7.79012C15.334 7.67358 15.2719 7.51603 15.2757 7.35312V5.50264C15.2757 3.06816 13.9318 1.72427 11.4974 1.72427H5.50264C3.06113 1.72427 1.72427 3.06816 1.72427 5.50264V11.5044C1.72427 13.9389 3.06816 15.2757 5.50264 15.2757H11.4974C13.9389 15.2757 15.2757 13.9318 15.2757 11.5044C15.2757 11.1663 15.5498 10.8923 15.8879 10.8923C16.2259 10.8923 16.5 11.1663 16.5 11.5044C16.5 14.5862 14.5862 16.5 11.5044 16.5H5.50264C2.41381 16.5 0.5 14.5862 0.5 11.5044V5.50264C0.5 2.41381 2.41381 0.5 5.50264 0.5H11.4974C14.5721 0.5 16.5 2.41381 16.5 5.50264V7.36016ZM4.46834 12.2503V7.17728V7.12802C4.47381 6.96624 4.54387 6.81339 4.66287 6.70364C4.78187 6.5939 4.93989 6.53641 5.10158 6.54403C5.26397 6.54953 5.4175 6.61937 5.52836 6.73814C5.63922 6.85692 5.69831 7.0149 5.69261 7.17728V12.2925C5.68096 12.6306 5.39744 12.8952 5.05937 12.8835C4.72129 12.8719 4.45668 12.5884 4.46834 12.2503ZM7.91602 4.75667V12.2571C7.91602 12.5952 8.19008 12.8692 8.52815 12.8692C8.86623 12.8692 9.14029 12.5952 9.14029 12.2571V4.75667C9.14029 4.41859 8.86623 4.14453 8.52815 4.14453C8.19008 4.14453 7.91602 4.41859 7.91602 4.75667ZM11.3074 12.2501V9.85784C11.3074 9.51977 11.5815 9.2457 11.9196 9.2457C12.2576 9.2457 12.5317 9.51977 12.5317 9.85784V12.2501C12.5317 12.5882 12.2576 12.8622 11.9196 12.8622C11.5815 12.8622 11.3074 12.5882 11.3074 12.2501Z" fill="white"/>
</svg>
