<svg width="17" height="16" viewBox="0 0 17 16" fill="none" xmlns="http://www.w3.org/2000/svg">
<path fill-rule="evenodd" clip-rule="evenodd" d="M3.40669 12.7042C3.40669 13.0927 3.71841 13.408 4.1025 13.408C4.4866 13.408 4.79832 13.0927 4.79832 12.7042V2.90862L7.01473 5.15902C7.28563 5.43493 7.72539 5.43493 7.99815 5.1609C8.27091 4.88687 8.27184 4.44111 8 4.16521L4.59514 0.707018C4.3966 0.504313 4.09601 0.445191 3.83717 0.553113C3.57647 0.661973 3.40669 0.91817 3.40669 1.20346V12.7042ZM0.695934 5.3623C0.518733 5.3623 0.340604 5.29379 0.205151 5.15678C-0.0676088 4.88275 -0.0685366 4.43793 0.203296 4.16202L1.55782 2.78532C1.82965 2.50941 2.26941 2.50941 2.54217 2.78344C2.814 3.05747 2.81493 3.50323 2.54402 3.77914L1.18857 5.1549C1.05312 5.29379 0.874063 5.3623 0.695934 5.3623ZM12.1275 15.6492C12.2129 15.6849 12.3029 15.7027 12.3929 15.7027C12.5747 15.7027 12.7528 15.6314 12.8855 15.4953L15.7996 12.5345C16.0705 12.2586 16.0695 11.8128 15.7977 11.5388C15.525 11.2648 15.0843 11.2657 14.8134 11.5407L13.0887 13.2946V3.49723C13.0887 3.10871 12.7779 2.79339 12.3929 2.79339C12.0088 2.79339 11.697 3.10871 11.697 3.49723V14.9989C11.697 15.2842 11.8668 15.5404 12.1275 15.6492ZM9.84736 13.4081C9.98374 13.547 10.1628 13.6155 10.3409 13.6155C10.5181 13.6155 10.6963 13.547 10.8317 13.41C11.1045 13.136 11.1054 12.6912 10.8345 12.4153L9.47997 11.0386C9.20721 10.7627 8.76745 10.7627 8.49562 11.0367C8.22286 11.3107 8.22193 11.7565 8.49284 12.0324L9.84736 13.4081Z" fill="white"/>
</svg>
